{
  "accessors": [
    {
      "bufferView": 2,
      "componentType": 5126,
      "count": 9408,
      "max": [
        0.02144283428788185,
        0.2623702883720398,
        0.051981985569000244
      ],
      "min": [
        -0.027617787942290306,
        -0.47144103050231934,
        -0.13034528493881226
      ],
      "type": "VEC3"
    },
    {
      "bufferView": 2,
      "byteOffset": 112896,
      "componentType": 5126,
      "count": 9408,
      "max": [
        1.0,
        0.9998448491096497,
        0.9996991157531738
      ],
      "min": [
        -1.0,
        -0.9999293684959412,
        -0.9999603033065796
      ],
      "type": "VEC3"
    },
    {
      "bufferView": 1,
      "componentType": 5126,
      "count": 9408,
      "max": [
        6.0,
        0.0
      ],
      "min": [
        -1.0,
        -16.0
      ],
      "type": "VEC2"
    },
    {
      "bufferView": 0,
      "componentType": 5125,
      "count": 55668,
      "type": "SCALAR"
    },
    {
      "bufferView": 2,
      "byteOffset": 225792,
      "componentType": 5126,
      "count": 2333,
      "max": [
        0.4435734748840332,
        1.375515103340149,
        0.443573534488678
      ],
      "min": [
        -0.44357359409332275,
        0.18714749813079834,
        -0.44357365369796753
      ],
      "type": "VEC3"
    },
    {
      "bufferView": 2,
      "byteOffset": 253788,
      "componentType": 5126,
      "count": 2333,
      "max": [
        0.999603271484375,
        1.0,
        0.9999906420707703
      ],
      "min": [
        -0.999603271484375,
        -0.9999829530715942,
        -0.9999905824661255
      ],
      "type": "VEC3"
    },
    {
      "bufferView": 1,
      "byteOffset": 75264,
      "componentType": 5126,
      "count": 2333,
      "max": [
        1.0000001192092896,
        1.0
      ],
      "min": [
        0.0,
        0.0
      ],
      "type": "VEC2"
    },
    {
      "bufferView": 0,
      "byteOffset": 222672,
      "componentType": 5125,
      "count": 13200,
      "type": "SCALAR"
    }
  ],
  "asset": {
    "extras": {
      "author": "Willaim J (https://sketchfab.com/williamj-7)",
      "license": "CC-BY-4.0 (http://creativecommons.org/licenses/by/4.0/)",
      "source": "https://sketchfab.com/3d-models/balloon-df73503a9df447209178b0829ba702cb",
      "title": "Balloon"
    },
    "generator": "Sketchfab-12.67.0",
    "version": "2.0"
  },
  "bufferViews": [
    {
      "buffer": 0,
      "byteLength": 275472,
      "name": "floatBufferViews",
      "target": 34963
    },
    {
      "buffer": 0,
      "byteLength": 93928,
      "byteOffset": 275472,
      "byteStride": 8,
      "name": "floatBufferViews",
      "target": 34962
    },
    {
      "buffer": 0,
      "byteLength": 281784,
      "byteOffset": 369400,
      "byteStride": 12,
      "name": "floatBufferViews",
      "target": 34962
    }
  ],
  "buffers": [
    {
      "byteLength": 651184,
      "uri": "scene.bin"
    }
  ],
  "materials": [
    {
      "doubleSided": true,
      "name": "String_co",
      "pbrMetallicRoughness": {
        "baseColorFactor": [
          0.909091,
          0.909091,
          0.909091,
          1.0
        ],
        "metallicFactor": 0.0,
        "roughnessFactor": 0.6
      }
    },
    {
      "alphaMode": "BLEND",
      "doubleSided": true,
      "name": "Ballon_co",
      "pbrMetallicRoughness": {
        "baseColorFactor": [
          1.0,
          0.3333,
          0.3862,
          0.8460305459407033
        ],
        "metallicFactor": 0.0,
        "roughnessFactor": 0.39087150417319194
      }
    }
  ],
  "meshes": [
    {
      "name": "String1_String_co_0",
      "primitives": [
        {
          "attributes": {
            "NORMAL": 1,
            "POSITION": 0,
            "TEXCOORD_0": 2
          },
          "indices": 3,
          "material": 0,
          "mode": 4
        }
      ]
    },
    {
      "name": "Balloon_Ballon_co_0",
      "primitives": [
        {
          "attributes": {
            "NORMAL": 5,
            "POSITION": 4,
            "TEXCOORD_0": 6
          },
          "indices": 7,
          "material": 1,
          "mode": 4
        }
      ]
    }
  ],
  "nodes": [
    {
      "children": [
        1
      ],
      "matrix": [
        1.0,
        0.0,
        0.0,
        0.0,
        0.0,
        2.220446049250313e-16,
        -1.0,
        0.0,
        0.0,
        1.0,
        2.220446049250313e-16,
        0.0,
        0.0,
        0.0,
        0.0,
        1.0
      ],
      "name": "Sketchfab_model"
    },
    {
      "children": [
        2
      ],
      "matrix": [
        1.0,
        0.0,
        0.0,
        0.0,
        0.0,
        0.0,
        1.0,
        0.0,
        0.0,
        -1.0,
        0.0,
        0.0,
        0.0,
        0.0,
        0.0,
        1.0
      ],
      "name": "Balloon.fbx"
    },
    {
      "children": [
        3
      ],
      "name": "RootNode"
    },
    {
      "children": [
        4,
        6
      ],
      "matrix": [
        1.0,
        0.0,
        0.0,
        0.0,
        0.0,
        1.0,
        0.0,
        0.0,
        0.0,
        0.0,
        1.0,
        0.0,
        0.0,
        0.19624876976013184,
        0.0,
        1.0
      ],
      "name": "Ballon"
    },
    {
      "children": [
        5
      ],
      "name": "String1"
    },
    {
      "mesh": 0,
      "name": "String1_String_co_0"
    },
    {
      "children": [
        7
      ],
      "name": "Balloon"
    },
    {
      "mesh": 1,
      "name": "Balloon_Ballon_co_0"
    }
  ],
  "scene": 0,
  "scenes": [
    {
      "name": "Sketchfab_Scene",
      "nodes": [
        0
      ]
    }
  ]
}
